<?xml version="1.0" encoding="UTF-8"?>
<!DOCTYPE svg PUBLIC "-//W3C//DTD SVG 1.1//EN" "http://www.w3.org/Graphics/SVG/1.1/DTD/svg11.dtd">
<!-- Creator: CorelDRAW 2019 (64 Bit) -->
<svg xmlns="http://www.w3.org/2000/svg" xml:space="preserve" width="1920px" height="720px" version="1.1" style="shape-rendering:geometricPrecision; text-rendering:geometricPrecision; image-rendering:optimizeQuality; fill-rule:evenodd; clip-rule:evenodd"
viewBox="0 0 3515.33 1318.25"
 xmlns:xlink="http://www.w3.org/1999/xlink">
 <defs>
  <style type="text/css">
   <![CDATA[
    .fil0 {fill:none}
    .fil3 {fill:black}
    .fil1 {fill:#25F4EE}
    .fil2 {fill:#FE2C55}
    .fil4 {fill:#373435;fill-rule:nonzero}
   ]]>
  </style>
 </defs>
 <g id="Camada_x0020_1">
  <metadata id="CorelCorpID_0Corel-Layer"/>
  <g id="_2278094335104">
   <rect class="fil0" width="3515.33" height="1318.25"/>
   <g>
    <g>
     <path class="fil1" d="M536.29 645.4l0 -18.9c-6.47,-0.86 -13.06,-1.4 -19.85,-1.4 -81.06,-0.11 -147,65.89 -147,147.11 0,49.8 24.83,93.87 62.82,120.55 -24.5,-26.25 -39.51,-61.57 -39.51,-100.24 0,-80.04 64.11,-145.28 143.54,-147.12z"/>
     <path class="fil1" d="M539.85 859.7c36.16,0 65.73,-28.83 67.03,-64.69l0.11 -320.49 58.49 0c-1.19,-6.59 -1.84,-13.39 -1.84,-20.3l-79.86 0 -0.11 320.48c-1.29,35.86 -30.86,64.7 -67.01,64.7 -11.23,0 -21.8,-2.81 -31.2,-7.78 12.09,16.96 31.95,28.08 54.39,28.08z"/>
     <path class="fil1" d="M774.81 583.3l0 -17.82c-22.34,0 -43.06,-6.6 -60.55,-18.05 15.55,17.83 36.59,30.79 60.55,35.87z"/>
     <path class="fil2" d="M714.26 547.43c-17.05,-19.55 -27.3,-45.04 -27.3,-72.91l-21.37 0c5.51,30.46 23.64,56.61 48.67,72.91z"/>
     <path class="fil2" d="M516.55 704.92c-37.02,0 -67.14,30.13 -67.14,67.18 0,25.82 14.68,48.29 36.05,59.52 -7.98,-11.02 -12.73,-24.51 -12.73,-39.21 0,-37.05 30.11,-67.18 67.12,-67.18 6.91,0 13.61,1.19 19.86,3.13l0 -81.66c-6.47,-0.87 -13.05,-1.4 -19.86,-1.4 -1.18,0 -2.26,0.1 -3.45,0.1l0 62.65c-6.37,-1.94 -12.95,-3.13 -19.85,-3.13z"/>
     <path class="fil2" d="M774.81 583.3l0 62.1c-41.45,0 -79.87,-13.28 -111.17,-35.75l0 162.56c0,81.12 -65.94,147.23 -147.1,147.23 -31.3,0 -60.43,-9.94 -84.28,-26.68 26.87,28.84 65.18,46.98 107.59,46.98 81.05,0 147.11,-65.99 147.11,-147.22l0 -162.56c31.29,22.46 69.71,35.75 111.15,35.75l0 -79.93c-8.09,0 -15.86,-0.87 -23.3,-2.48z"/>
     <path class="fil3" d="M663.64 772.21l0 -162.56c31.3,22.47 69.72,35.75 111.17,35.75l0 -62.1c-23.96,-5.08 -45.01,-18.04 -60.55,-35.87 -25.04,-16.3 -43.06,-42.45 -48.79,-72.91l-58.49 0 -0.11 320.49c-1.29,35.86 -30.86,64.69 -67.02,64.69 -22.44,0 -42.19,-11.12 -54.5,-27.97 -21.36,-11.34 -36.05,-33.7 -36.05,-59.52 0,-37.05 30.11,-67.18 67.13,-67.18 6.91,0 13.6,1.19 19.86,3.13l0 -62.65c-79.43,1.73 -143.54,66.97 -143.54,147.01 0,38.67 15,73.88 39.51,100.24 23.85,16.74 52.98,26.68 84.28,26.68 81.05,0 147.1,-66.11 147.1,-147.23z"/>
    </g>
    <polygon class="fil4" points="944.43,801.8 1017.16,689.76 950.84,591.55 1004.65,591.55 1043.71,654.41 1083.02,591.55 1136.37,591.55 1070.2,689.76 1143.08,801.8 1090.35,801.8 1043.71,725.51 996.92,801.8 "/>
    <polygon id="1" class="fil4" points="1157.94,743.52 1157.94,709.95 1265.65,709.95 1265.65,743.52 "/>
    <path id="2" class="fil4" d="M1296.68 697.18c0,-19.68 4.73,-37.78 14.14,-54.36 9.41,-16.53 22.37,-29.6 38.9,-39.27 16.48,-9.61 34.64,-14.44 54.37,-14.44 15.92,0 30.72,3.1 44.4,9.31 13.73,6.2 25.28,14.8 34.58,25.68l-32.9 28.18c-12.61,-14.04 -27.97,-21.06 -46.08,-21.06 -11.6,0 -22.22,2.95 -31.89,8.85 -9.61,5.9 -17.19,13.89 -22.68,24.01 -5.54,10.12 -8.29,21.15 -8.29,33.16 0,12 2.75,23.14 8.29,33.46 5.49,10.32 13.07,18.51 22.68,24.67 9.67,6.15 20.29,9.2 31.89,9.2 7.78,0 15.46,-1.47 23.09,-4.37 7.68,-2.95 14.19,-7.33 19.63,-13.12 5.39,-5.8 8.14,-12.26 8.24,-19.43l-56.45 0 0 -36.31 108.02 0c0,19.27 -2.49,36.26 -7.43,50.85 -4.98,14.65 -12.05,26.45 -21.15,35.5 -9.16,9.06 -19.94,15.87 -32.3,20.4 -12.36,4.52 -26.24,6.76 -41.65,6.76 -14.8,0 -28.84,-2.85 -42.21,-8.6 -13.38,-5.69 -24.77,-13.37 -34.28,-23.03 -9.46,-9.61 -16.99,-21.06 -22.58,-34.28 -5.55,-13.23 -8.34,-27.16 -8.34,-41.76z"/>
    <path id="3" class="fil4" d="M1527.32 697.13c0,-19.68 4.73,-37.78 14.14,-54.31 9.46,-16.53 22.32,-29.6 38.65,-39.27 16.32,-9.61 34.23,-14.44 53.71,-14.44 19.58,0 37.53,4.83 53.91,14.44 16.37,9.67 29.29,22.74 38.75,39.27 9.41,16.53 14.14,34.63 14.14,54.31 0,19.48 -4.73,37.49 -14.14,54.02 -9.46,16.52 -22.38,29.59 -38.75,39.21 -16.38,9.66 -34.33,14.49 -53.91,14.49 -14.6,0 -28.48,-2.85 -41.61,-8.6 -13.17,-5.69 -24.51,-13.37 -33.97,-23.03 -9.51,-9.67 -17.04,-21.11 -22.58,-34.38 -5.54,-13.28 -8.34,-27.21 -8.34,-41.71zm44.55 0c0,18.16 6,33.67 18,46.44 12.01,12.76 26.65,19.17 43.95,19.17 17.39,0 32.09,-6.41 44.14,-19.17 12.05,-12.77 18.11,-28.28 18.11,-46.44 0,-18.15 -6.06,-33.72 -18.16,-46.58 -12.11,-12.87 -26.8,-19.33 -44.09,-19.33 -17.3,0 -31.94,6.41 -43.95,19.28 -12,12.81 -18,28.38 -18,46.63z"/>
    <path id="4" class="fil4" d="M1777.8 801.8l0 -210.25 85.34 0c11.34,0 21.56,1.99 30.61,5.9 9.05,3.92 16.38,9.21 21.87,15.77 5.55,6.61 9.71,13.93 12.61,22.02 2.85,8.03 4.28,16.48 4.28,25.33 0,15.97 -4.38,30.21 -13.13,42.67 -8.74,12.46 -21.46,20.49 -38.19,24.05l51.01 74.51 -52.48 0 -47.2 -72.58 -10.17 0 0 72.58 -44.55 0zm44.55 -111.74l38.04 0c8.19,0 14.65,-3.05 19.48,-9.1 4.78,-6.05 7.17,-12.87 7.17,-20.39 0,-7.38 -2.29,-14.14 -6.82,-20.35 -4.52,-6.2 -10.73,-9.3 -18.66,-9.3l-39.21 0 0 59.14z"/>
    <path id="5" class="fil4" d="M1959.87 697.18c0,-19.68 4.73,-37.78 14.14,-54.36 9.41,-16.53 22.38,-29.6 38.9,-39.27 16.48,-9.61 34.64,-14.44 54.37,-14.44 15.92,0 30.72,3.1 44.4,9.31 13.73,6.2 25.28,14.8 34.58,25.68l-32.9 28.18c-12.61,-14.04 -27.97,-21.06 -46.08,-21.06 -11.6,0 -22.22,2.95 -31.89,8.85 -9.61,5.9 -17.19,13.89 -22.68,24.01 -5.54,10.12 -8.29,21.15 -8.29,33.16 0,12 2.75,23.14 8.29,33.46 5.49,10.32 13.07,18.51 22.68,24.67 9.67,6.15 20.29,9.2 31.89,9.2 7.78,0 15.46,-1.47 23.09,-4.37 7.68,-2.95 14.19,-7.33 19.63,-13.12 5.39,-5.8 8.14,-12.26 8.24,-19.43l-56.45 0 0 -36.31 108.02 0c0,19.27 -2.49,36.26 -7.42,50.85 -4.99,14.65 -12.06,26.45 -21.16,35.5 -9.16,9.06 -19.94,15.87 -32.3,20.4 -12.35,4.52 -26.24,6.76 -41.65,6.76 -14.8,0 -28.83,-2.85 -42.21,-8.6 -13.38,-5.69 -24.77,-13.37 -34.28,-23.03 -9.46,-9.61 -16.99,-21.06 -22.58,-34.28 -5.54,-13.23 -8.34,-27.16 -8.34,-41.76z"/>
    <path id="6" class="fil4" d="M2190.51 697.13c0,-19.68 4.73,-37.78 14.14,-54.31 9.46,-16.53 22.32,-29.6 38.65,-39.27 16.33,-9.61 34.23,-14.44 53.71,-14.44 19.58,0 37.53,4.83 53.91,14.44 16.37,9.67 29.29,22.74 38.75,39.27 9.41,16.53 14.14,34.63 14.14,54.31 0,19.48 -4.73,37.49 -14.14,54.02 -9.46,16.52 -22.38,29.59 -38.75,39.21 -16.38,9.66 -34.33,14.49 -53.91,14.49 -14.6,0 -28.48,-2.85 -41.61,-8.6 -13.17,-5.69 -24.51,-13.37 -33.97,-23.03 -9.51,-9.67 -17.04,-21.11 -22.58,-34.38 -5.54,-13.28 -8.34,-27.21 -8.34,-41.71zm44.55 0c0,18.16 6,33.67 18,46.44 12.01,12.76 26.66,19.17 43.95,19.17 17.39,0 32.09,-6.41 44.14,-19.17 12.06,-12.77 18.11,-28.28 18.11,-46.44 0,-18.15 -6.05,-33.72 -18.16,-46.58 -12.1,-12.87 -26.8,-19.33 -44.09,-19.33 -17.29,0 -31.94,6.41 -43.95,19.28 -12,12.81 -18,28.38 -18,46.63z"/>
    <polygon id="7" class="fil4" points="2440.99,801.8 2440.99,591.55 2481.82,591.55 2553.89,717.32 2553.89,591.55 2598.44,591.55 2598.44,801.8 2558.62,801.8 2485.54,674.55 2485.54,801.8 "/>
    <path id="8" class="fil4" d="M2686.53 801.8l78.07 -210.25 48.57 0 77.76 210.25 -47.05 0 -18.51 -49.74 -72.68 0 -18.66 49.74 -47.5 0zm80.76 -88.49l43.64 0 -22.18 -73.19 -21.46 73.19z"/>
    <path id="9" class="fil4" d="M2914.02 801.8l0 -210.25 86.15 0c11.5,0 21.77,1.99 30.87,5.9 9.05,3.92 16.33,9.21 21.77,15.82 5.49,6.61 9.61,13.93 12.36,21.97 2.79,8.03 4.17,16.53 4.17,25.33 0,9 -1.38,17.49 -4.17,25.58 -2.8,8.08 -6.92,15.36 -12.36,21.87 -5.49,6.56 -12.76,11.75 -21.87,15.61 -9.1,3.92 -19.38,5.85 -30.92,5.85l-41.45 0 0 72.32 -44.55 0zm44.55 -111.69l39.57 0c8.19,0 14.64,-3.05 19.48,-9.1 4.78,-6.05 7.17,-12.87 7.17,-20.44 0,-7.33 -2.29,-14.14 -6.82,-20.35 -4.52,-6.2 -10.78,-9.3 -18.66,-9.3l-40.74 0 0 59.19z"/>
    <polygon id="10" class="fil4" points="3101.33,801.8 3101.33,591.55 3145.88,591.55 3145.88,801.8 "/>
   </g>
  </g>
 </g>
</svg>
